<?xml version="1.0" encoding="iso-8859-1"?>
<!-- Generator: Adobe Illustrator 19.0.0, SVG Export Plug-In . SVG Version: 6.00 Build 0)  -->
<svg version="1.1" id="Capa_1" xmlns="http://www.w3.org/2000/svg" xmlns:xlink="http://www.w3.org/1999/xlink" x="0px" y="0px"
	 viewBox="0 0 512 512" style="enable-background:new 0 0 512 512;" xml:space="preserve">
<g>
	<path style="fill:#9EA7AF;" d="M12.5,453.544c-2.75,0-5,2.25-5,5v33.404h53.505v-38.404H12.5z"/>
	<path style="fill:#9EA7AF;" d="M499.5,453.544h-48.505v38.404H504.5v-33.404C504.5,455.794,502.25,453.544,499.5,453.544z"/>
</g>
<g style="opacity:0.1;">
	<path style="fill:#00003F;" d="M43,453.544H12.5c-2.75,0-5,2.25-5,5v33.404H38v-33.404C38,455.794,40.25,453.544,43,453.544z"/>
</g>
<rect x="182.28" y="389.691" style="fill:#9EA7AF;" width="147.44" height="36.858"/>
<path style="fill:#C5CCD3;" d="M61.005,491.948v-60.395c0-2.75,2.25-5,5-5h379.99c2.75,0,5,2.25,5,5v60.395H61.005z"/>
<g style="opacity:0.1;">
	<path style="fill:#00003F;" d="M97.01,426.553H66.005c-2.75,0-5,2.25-5,5v60.395H92.01v-60.395
		C92.01,428.803,94.26,426.553,97.01,426.553z"/>
</g>
<g>
	<circle style="fill:#FB8276;" cx="103.96" cy="65.171" r="23.336"/>
	<circle style="fill:#FB8276;" cx="408.04" cy="65.171" r="23.336"/>
</g>
<g>
	<path style="fill:#9EA7AF;" d="M52.682,200.645H17.5c-5.5,0-10,4.5-10,10v104.844c0,5.5,4.5,10,10,10h35.182V200.645z"/>
	<path style="fill:#9EA7AF;" d="M494.5,200.645h-35.182v124.844H494.5c5.5,0,10-4.5,10-10V210.645
		C504.5,205.145,500,200.645,494.5,200.645z"/>
</g>
<g style="opacity:0.1;">
	<path style="fill:#00003F;" d="M28,315.489V210.645c0-5.5,4.5-10,10-10H17.5c-5.5,0-10,4.5-10,10v104.844c0,5.5,4.5,10,10,10H38
		C32.5,325.489,28,320.989,28,315.489z"/>
</g>
<path style="fill:#C5CCD3;" d="M67.682,136.439c-8.25,0-15,6.75-15,15v223.256c0,8.25,6.75,15,15,15h376.637c8.25,0,15-6.75,15-15
	V151.439c0-8.25-6.75-15-15-15H67.682z"/>
<g style="opacity:0.1;">
	<path style="fill:#00003F;" d="M76.682,374.695V151.439c0-8.25,6.75-15,15-15h-24c-8.25,0-15,6.75-15,15v223.256
		c0,8.25,6.75,15,15,15h24C83.432,389.695,76.682,382.945,76.682,374.695z"/>
</g>
<path style="fill:#08375E;" d="M93.352,354.025c-2.75,0-5-2.25-5-5V177.109c0-2.75,2.25-5,5-5h325.297c2.75,0,5,2.25,5,5v171.916
	c0,2.75-2.25,5-5,5H93.352z"/>
<g style="opacity:0.1;">
	<path style="fill:#00003F;" d="M119.703,349.025V177.109c0-2.75,2.25-5,5-5H93.352c-2.75,0-5,2.25-5,5v171.916c0,2.75,2.25,5,5,5
		h31.352C121.953,354.025,119.703,351.775,119.703,349.025z"/>
</g>
<path style="fill:#FCDB67;" d="M201.79,172.109l11.126,22.129c0.741,1.474,2.698,2.68,4.348,2.68h77.473
	c1.65,0,3.607-1.206,4.348-2.68l11.125-22.129H201.79z"/>
<g>
	<path style="fill:#33C7CA;" d="M172.77,267.795c0,1.65-1.35,3-3,3h-24.914c-1.65,0-3-1.35-3-3v-46.316c0-1.65,1.35-3,3-3h24.914
		c1.65,0,3,1.35,3,3V267.795z"/>
	<path style="fill:#33C7CA;" d="M370.144,267.795c0,1.65-1.35,3-3,3H342.23c-1.65,0-3-1.35-3-3v-46.316c0-1.65,1.35-3,3-3h24.914
		c1.65,0,3,1.35,3,3V267.795z"/>
	<path style="fill:#33C7CA;" d="M309.505,308.666c0,1.65-1.35,3-3,3h-101.01c-1.65,0-3-1.35-3-3v-21.05c0-1.65,1.35-3,3-3h101.01
		c1.65,0,3,1.35,3,3V308.666z"/>
</g>
<path d="M444.318,397.195c12.407,0,22.5-10.093,22.5-22.5v-41.706H494.5c9.649,0,17.5-7.851,17.5-17.5V210.645
	c0-9.649-7.851-17.5-17.5-17.5h-27.682v-41.706c0-12.407-10.093-22.5-22.5-22.5H415.54V95.084
	c13.39-3.359,23.337-15.493,23.337-29.91c0-17.004-13.833-30.837-30.837-30.837c-17.003,0-30.836,13.833-30.836,30.837
	c0,14.417,9.946,26.551,23.336,29.91v33.855H364c-4.142,0-7.5,3.358-7.5,7.5s3.358,7.5,7.5,7.5h80.318c4.136,0,7.5,3.364,7.5,7.5
	v84.305c0,4.142,3.358,7.5,7.5,7.5s7.5-3.358,7.5-7.5v-27.599H494.5c1.355,0,2.5,1.145,2.5,2.5v104.844c0,1.355-1.145,2.5-2.5,2.5
	h-27.682v-38.246c0-4.142-3.358-7.5-7.5-7.5s-7.5,3.358-7.5,7.5v94.951c0,4.136-3.365,7.5-7.5,7.5H67.682
	c-4.135,0-7.5-3.364-7.5-7.5V151.439c0-4.136,3.365-7.5,7.5-7.5H315c4.142,0,7.5-3.358,7.5-7.5s-3.358-7.5-7.5-7.5H111.46V95.084
	c13.39-3.359,23.336-15.493,23.336-29.91c0-17.004-13.833-30.837-30.836-30.837S73.123,48.171,73.123,65.174
	c0,14.417,9.946,26.551,23.337,29.91v33.855H67.682c-12.407,0-22.5,10.093-22.5,22.5v41.706H17.5c-9.649,0-17.5,7.851-17.5,17.5
	v104.844c0,9.649,7.851,17.5,17.5,17.5h27.682v41.706c0,12.407,10.093,22.5,22.5,22.5h107.101v21.858H66.005
	c-6.893,0-12.5,5.607-12.5,12.5v14.491H12.5c-6.893,0-12.5,5.607-12.5,12.5v33.404c0,4.142,3.358,7.5,7.5,7.5h497
	c4.142,0,7.5-3.358,7.5-7.5v-33.404c0-6.893-5.607-12.5-12.5-12.5h-41.005v-14.491c0-6.893-5.607-12.5-12.5-12.5H337.218v-21.858
	L444.318,397.195L444.318,397.195z M392.204,65.174c0-8.733,7.104-15.837,15.836-15.837s15.837,7.104,15.837,15.837
	c0,8.732-7.104,15.836-15.837,15.836S392.204,73.906,392.204,65.174z M88.123,65.174c0-8.733,7.104-15.837,15.837-15.837
	s15.836,7.104,15.836,15.837c0,8.732-7.104,15.836-15.836,15.836S88.123,73.906,88.123,65.174z M17.5,317.989
	c-1.355,0-2.5-1.145-2.5-2.5V210.645c0-1.355,1.145-2.5,2.5-2.5h27.682v109.844H17.5z M15,461.044h38.505v23.404H15V461.044z
	 M497,461.044v23.404h-38.505v-23.404H497z M322.218,419.053H260c-4.142,0-7.5,3.358-7.5,7.5s3.358,7.5,7.5,7.5h183.495v50.395
	H68.505v-50.395H210c4.142,0,7.5-3.358,7.5-7.5s-3.358-7.5-7.5-7.5h-20.218v-21.858h132.436L322.218,419.053L322.218,419.053z"/>
<path d="M80.852,177.109v171.916c0,6.893,5.607,12.5,12.5,12.5h325.297c6.893,0,12.5-5.607,12.5-12.5V177.109
	c0-6.893-5.607-12.5-12.5-12.5H93.352C86.459,164.609,80.852,170.216,80.852,177.109z M298.044,179.609l-4.931,9.809h-74.226
	l-4.931-9.809H298.044z M95.852,179.609h101.315l9.049,17.998c2.017,4.01,6.56,6.811,11.048,6.811h77.473
	c4.489,0,9.032-2.801,11.048-6.811l9.049-17.998h101.315v166.916H95.852V179.609z"/>
<path d="M169.77,210.979h-24.914c-5.79,0-10.5,4.71-10.5,10.5v46.316c0,5.79,4.71,10.5,10.5,10.5h24.914c5.79,0,10.5-4.71,10.5-10.5
	v-46.316C180.27,215.689,175.56,210.979,169.77,210.979z M165.27,263.295h-15.914v-37.316h15.914V263.295z"/>
<path d="M367.144,210.979H342.23c-5.79,0-10.5,4.71-10.5,10.5v46.316c0,5.79,4.71,10.5,10.5,10.5h24.914c5.79,0,10.5-4.71,10.5-10.5
	v-46.316C377.644,215.689,372.933,210.979,367.144,210.979z M362.644,263.295H346.73v-37.316h15.914V263.295z"/>
<path d="M306.505,277.116h-101.01c-5.79,0-10.5,4.71-10.5,10.5v21.05c0,5.789,4.71,10.5,10.5,10.5h101.01
	c5.789,0,10.5-4.711,10.5-10.5v-21.05C317.005,281.827,312.294,277.116,306.505,277.116z M302.005,304.166h-92.01v-12.05h92.01
	V304.166z"/>
<path d="M163.417,77.276h52.865c6.893,0,12.5-5.607,12.5-12.5v-7.678L260.11,91.43c2.659,2.914,5.412,3.643,7.5,3.643
	c1.448,0,2.576-0.35,3.131-0.565c1.355-0.525,5.779-2.759,5.779-9.439V37.31l20.46,23.087c3.271,3.69,8.999,6.268,13.93,6.268
	h37.675c4.142,0,7.5-3.358,7.5-7.5s-3.358-7.5-7.5-7.5h-37.658c-0.692-0.031-2.25-0.731-2.72-1.217l-30.258-34.144
	c-4.455-5.025-9.252-3.728-10.615-3.21c-1.364,0.517-5.814,2.727-5.814,9.444v48.183L230.192,36.39
	c-4.502-4.935-9.276-3.603-10.631-3.077c-1.355,0.525-5.779,2.759-5.779,9.439v19.523h-50.365c-4.142,0-7.5,3.358-7.5,7.5
	C155.917,73.918,159.274,77.276,163.417,77.276z"/>
<path d="M334.75,467.343c1.98,0,3.91-0.8,5.31-2.19c1.39-1.4,2.19-3.33,2.19-5.31c0-1.97-0.8-3.91-2.19-5.3
	c-1.4-1.4-3.33-2.2-5.31-2.2c-1.97,0-3.9,0.8-5.3,2.2c-1.39,1.4-2.2,3.33-2.2,5.3s0.81,3.91,2.2,5.31
	C330.85,466.543,332.78,467.343,334.75,467.343z"/>
<path d="M373.12,467.343c1.97,0,3.9-0.8,5.3-2.19c1.4-1.4,2.2-3.33,2.2-5.31c0-1.97-0.8-3.91-2.2-5.3c-1.4-1.4-3.33-2.2-5.3-2.2
	c-1.98,0-3.91,0.8-5.31,2.2c-1.39,1.4-2.19,3.33-2.19,5.3c0,1.98,0.8,3.91,2.19,5.31C369.21,466.543,371.14,467.343,373.12,467.343z
	"/>
<path d="M411.48,467.343c1.97,0,3.9-0.8,5.3-2.2c1.4-1.39,2.2-3.32,2.2-5.3c0-1.97-0.8-3.91-2.2-5.3c-1.4-1.4-3.33-2.2-5.3-2.2
	c-1.98,0-3.91,0.8-5.31,2.2c-1.39,1.4-2.19,3.33-2.19,5.3s0.8,3.91,2.19,5.3C407.57,466.543,409.5,467.343,411.48,467.343z"/>
<path d="M162.351,452.345h-61.828c-4.142,0-7.5,3.358-7.5,7.5s3.358,7.5,7.5,7.5h61.828c4.142,0,7.5-3.358,7.5-7.5
	S166.493,452.345,162.351,452.345z"/>
<g>
</g>
<g>
</g>
<g>
</g>
<g>
</g>
<g>
</g>
<g>
</g>
<g>
</g>
<g>
</g>
<g>
</g>
<g>
</g>
<g>
</g>
<g>
</g>
<g>
</g>
<g>
</g>
<g>
</g>
</svg>
